<svg id="rz" xmlns="http://www.w3.org/2000/svg" viewBox="0 0 256 256">
  <title>scanverification_256_whitebg</title>
  <g>
    <circle cx="128" cy="128" r="128" fill="#fff"/>
    <g>
      <path d="M135,28.2488A100.1476,100.1476,0,0,1,227.7512,121h14.0275A114.1584,114.1584,0,0,0,135,14.2213Z" fill="#0af"/>
      <path d="M28.2488,121A100.1476,100.1476,0,0,1,121,28.2488V14.2213A114.1584,114.1584,0,0,0,14.2213,121Z" fill="#0af"/>
      <path d="M121,227.7512A100.1476,100.1476,0,0,1,28.2488,135H14.2213A114.1584,114.1584,0,0,0,121,241.7787Z" fill="#0af"/>
      <path d="M227.7512,135A100.1476,100.1476,0,0,1,135,227.7512v14.0275A114.1584,114.1584,0,0,0,241.7787,135Z" fill="#0af"/>
    </g>
    <g>
      <path d="M128,199.6214c31.85-10.6786,52-40.0374,52-66.0269V77H76v56.5945c0,25.9895,20.15,55.3483,52,66.0269" fill="#005096"/>
      <polygon points="123.509 160.845 93.25 124.534 106.155 113.779 123.058 134.062 149.667 99.851 162.928 110.165 123.509 160.845" fill="#fff"/>
    </g>
  </g>
</svg>
