<?xml version="1.0" encoding="utf-8"?>
<!-- Generator: Adobe Illustrator 23.0.1, SVG Export Plug-In . SVG Version: 6.00 Build 0)  -->
<svg version="1.1" id="Ebene_1" xmlns="http://www.w3.org/2000/svg" width="112" height="112"  viewBox="0 0 48 48" enable-background="new 0 0 48 48" xml:space="preserve">
<g>
	<g>
		<path fill="#00AAFF" d="M26,3.1013C35.9852,4.0497,43.9503,12.0148,44.8987,22h3.0115C46.9444,10.3598,37.6402,1.0556,26,0.0898
			V3.1013z"/>
		<path fill="#00AAFF" d="M3.1013,22C4.0497,12.0148,12.0148,4.0497,22,3.1013V0.0898C10.3598,1.0556,1.0556,10.3598,0.0898,22
			H3.1013z"/>
		<path fill="#00AAFF" d="M22,44.8987C12.0148,43.9503,4.0497,35.9852,3.1013,26H0.0898C1.0556,37.6402,10.3598,46.9444,22,47.9102
			V44.8987z"/>
		<path fill="#00AAFF" d="M44.8987,26C43.9503,35.9852,35.9852,43.9503,26,44.8987v3.0115
			C37.6402,46.9444,46.9444,37.6402,47.9102,26H44.8987z"/>
	</g>
	<path fill="#005096" d="M24,39"/>
	<g>
		<path fill="#005096" d="M24,39c6.7374-2.2642,11-8.4893,11-14V13H13v12C13,30.5107,17.2626,36.7358,24,39"/>
		<polygon fill="#FFFFFF" points="23.0469,30.79 16.6558,23.1201 19.3442,20.8799 22.9531,25.21 28.6187,17.9258 31.3813,20.0742 		
			"/>
	</g>
</g>
</svg>
